<svg width="17" height="17" viewBox="0 0 17 17" fill="none" xmlns="http://www.w3.org/2000/svg">
<g clip-path="url(#clip0_45_22)">
<path d="M11.8905 8.17523C11.8905 8.88418 11.8522 9.56758 11.7851 10.219H5.86763C5.79738 9.56758 5.76225 8.88418 5.76225 8.17523C5.76225 7.46629 5.80057 6.78289 5.86763 6.13142H11.7851C11.8554 6.78289 11.8905 7.46629 11.8905 8.17523ZM12.8102 6.13142H16.7413C16.9106 6.78608 17 7.46948 17 8.17523C17 8.88099 16.9106 9.56438 16.7413 10.219H12.8102C12.8773 9.56119 12.9124 8.87779 12.9124 8.17523C12.9124 7.47267 12.8773 6.78928 12.8102 6.13142ZM16.406 5.10952H12.6793C12.3599 3.06891 11.7276 1.36041 10.9133 0.26825C13.4138 0.929294 15.448 2.74317 16.4028 5.10952H16.406ZM11.6446 5.10952H6.00495C6.19975 3.9471 6.49994 2.91881 6.86718 2.08532C7.2025 1.33167 7.57613 0.785589 7.93699 0.440696C8.29466 0.10219 8.59165 0 8.82477 0C9.05789 0 9.35488 0.10219 9.71255 0.440696C10.0734 0.785589 10.447 1.33167 10.7824 2.08532C11.1528 2.91562 11.4498 3.94391 11.6446 5.10952ZM4.97027 5.10952H1.24352C2.20155 2.74317 4.23259 0.929294 6.73625 0.26825C5.92192 1.36041 5.28962 3.06891 4.97027 5.10952ZM0.908206 6.13142H4.83934C4.77228 6.78928 4.73715 7.47267 4.73715 8.17523C4.73715 8.87779 4.77228 9.56119 4.83934 10.219H0.908206C0.738953 9.56438 0.649536 8.88099 0.649536 8.17523C0.649536 7.46948 0.738953 6.78608 0.908206 6.13142ZM6.86718 14.2619C6.49674 13.4317 6.19975 12.4034 6.00495 11.2409H11.6446C11.4498 12.4034 11.1496 13.4317 10.7824 14.2619C10.447 15.0156 10.0734 15.5617 9.71255 15.9066C9.35488 16.2483 9.05789 16.3505 8.82477 16.3505C8.59165 16.3505 8.29466 16.2483 7.93699 15.9098C7.57613 15.5649 7.2025 15.0188 6.86718 14.2651V14.2619ZM4.97027 11.2409C5.28962 13.2816 5.92192 14.9901 6.73625 16.0822C4.23259 15.4212 2.20155 13.6073 1.24352 11.2409H4.97027ZM16.406 11.2409C15.448 13.6073 13.417 15.4212 10.9165 16.0822C11.7308 14.9901 12.3599 13.2816 12.6825 11.2409H16.4092H16.406Z" fill="white"/>
</g>
<defs>
<clipPath id="clip0_45_22">
<rect width="16.3505" height="16.3505" fill="white" transform="translate(0.649536)"/>
</clipPath>
</defs>
</svg>
