<svg width="15" height="17" viewBox="0 0 15 17" fill="none" xmlns="http://www.w3.org/2000/svg">
<g clip-path="url(#clip0_45_24)">
<path d="M3.89477 14.3067H0.950359V4.75505H3.89477V14.3067ZM2.42098 3.45212C1.47966 3.45212 0.71582 2.66653 0.71582 1.71808C0.71582 1.26241 0.89547 0.825415 1.21525 0.503213C1.53503 0.181011 1.96874 0 2.42098 0C2.87321 0 3.30693 0.181011 3.62671 0.503213C3.94649 0.825415 4.12614 1.26241 4.12614 1.71808C4.12614 2.66653 3.3623 3.45212 2.42098 3.45212ZM14.9117 14.3067H11.9737V9.65699C11.9737 8.54887 11.9515 7.12778 10.4428 7.12778C8.91199 7.12778 8.67745 8.33171 8.67745 9.57716V14.3067H5.73621V4.75505H8.56018V6.05798H8.60139C8.9944 5.30751 9.95474 4.51554 11.3873 4.51554C14.3666 4.51554 14.9149 6.49228 14.9149 9.05982V14.3067H14.9117Z" fill="white"/>
</g>
<defs>
<clipPath id="clip0_45_24">
<rect width="14.1991" height="16.3505" fill="white" transform="translate(0.71582)"/>
</clipPath>
</defs>
</svg>
