<svg width="16" height="17" viewBox="0 0 16 17" fill="none" xmlns="http://www.w3.org/2000/svg">
<g clip-path="url(#clip0_45_20)">
<path d="M14.3458 4.84432C14.3551 4.98803 14.3551 5.13493 14.3551 5.27863C14.3551 9.70795 11.0716 14.8143 5.07042 14.8143C3.22032 14.8143 1.50392 14.265 0.0611572 13.3102C0.322348 13.3421 0.57732 13.3517 0.847839 13.3517C2.37456 13.3517 3.77691 12.8216 4.8994 11.921C3.46596 11.8891 2.26262 10.9247 1.84907 9.59618C2.05118 9.62811 2.25329 9.64727 2.46473 9.64727C2.75702 9.64727 3.0493 9.60576 3.32293 9.53231C1.8273 9.22254 0.707915 7.87171 0.707915 6.24305V6.20154C1.14323 6.45063 1.64696 6.60711 2.18178 6.62627C1.30181 6.0259 0.726571 4.99761 0.726571 3.83519C0.726571 3.21247 0.888261 2.64084 1.17122 2.14266C2.77878 4.17689 5.19169 5.50537 7.89999 5.64907C7.85023 5.39998 7.81914 5.14131 7.81914 4.88264C7.81914 3.03683 9.27435 1.53271 11.0809 1.53271C12.02 1.53271 12.8688 1.93828 13.4658 2.58975C14.2028 2.44604 14.9117 2.16502 15.5367 1.7818C15.2942 2.56101 14.778 3.21247 14.1033 3.62762C14.7593 3.55417 15.3968 3.36895 15.9813 3.11028C15.5367 3.77452 14.9801 4.36531 14.3458 4.84432Z" fill="white"/>
</g>
<defs>
<clipPath id="clip0_45_20">
<rect width="15.9202" height="16.3505" fill="white" transform="translate(0.0611572)"/>
</clipPath>
</defs>
</svg>
